<mxfile host="app.diagrams.net" agent="Mozilla/5.0 (X11; Linux x86_64) AppleWebKit/537.36 (KHTML, like Gecko) Chrome/131.0.0.0 Safari/537.36" version="24.8.6">
  <diagram name="第 1 页" id="hRMLbgi6yYKYOpbBuX7m">
    <mxGraphModel dx="1364" dy="793" grid="1" gridSize="10" guides="1" tooltips="1" connect="1" arrows="1" fold="1" page="1" pageScale="1" pageWidth="827" pageHeight="1169" math="0" shadow="0">
      <root>
        <mxCell id="0" />
        <mxCell id="1" parent="0" />
        <mxCell id="mJkIKe1cEbUoPiehUwoR-169" style="edgeStyle=orthogonalEdgeStyle;rounded=0;orthogonalLoop=1;jettySize=auto;html=1;exitX=0;exitY=0.25;exitDx=0;exitDy=0;" edge="1" parent="1" source="mJkIKe1cEbUoPiehUwoR-2">
          <mxGeometry relative="1" as="geometry">
            <mxPoint x="110" y="663" as="targetPoint" />
            <Array as="points">
              <mxPoint x="73" y="293" />
              <mxPoint x="21" y="293" />
              <mxPoint x="21" y="663" />
              <mxPoint x="70" y="663" />
            </Array>
          </mxGeometry>
        </mxCell>
        <mxCell id="mJkIKe1cEbUoPiehUwoR-2" value="" style="rounded=0;whiteSpace=wrap;html=1;rotation=-90;" vertex="1" parent="1">
          <mxGeometry x="20" y="213" width="110" height="10" as="geometry" />
        </mxCell>
        <mxCell id="mJkIKe1cEbUoPiehUwoR-3" value="" style="rounded=0;whiteSpace=wrap;html=1;rotation=-90;" vertex="1" parent="1">
          <mxGeometry x="30" y="213" width="110" height="10" as="geometry" />
        </mxCell>
        <mxCell id="mJkIKe1cEbUoPiehUwoR-4" value="" style="rounded=0;whiteSpace=wrap;html=1;rotation=-90;" vertex="1" parent="1">
          <mxGeometry x="40" y="213" width="110" height="10" as="geometry" />
        </mxCell>
        <mxCell id="mJkIKe1cEbUoPiehUwoR-5" value="" style="rounded=0;whiteSpace=wrap;html=1;rotation=-90;" vertex="1" parent="1">
          <mxGeometry x="50" y="213" width="110" height="10" as="geometry" />
        </mxCell>
        <mxCell id="mJkIKe1cEbUoPiehUwoR-6" value="" style="rounded=0;whiteSpace=wrap;html=1;rotation=-90;" vertex="1" parent="1">
          <mxGeometry x="60" y="213" width="110" height="10" as="geometry" />
        </mxCell>
        <mxCell id="mJkIKe1cEbUoPiehUwoR-7" value="" style="rounded=0;whiteSpace=wrap;html=1;rotation=-90;" vertex="1" parent="1">
          <mxGeometry x="70" y="213" width="110" height="10" as="geometry" />
        </mxCell>
        <mxCell id="mJkIKe1cEbUoPiehUwoR-8" value="" style="rounded=0;whiteSpace=wrap;html=1;rotation=-90;" vertex="1" parent="1">
          <mxGeometry x="80" y="213" width="110" height="10" as="geometry" />
        </mxCell>
        <mxCell id="mJkIKe1cEbUoPiehUwoR-9" value="" style="rounded=0;whiteSpace=wrap;html=1;rotation=-90;" vertex="1" parent="1">
          <mxGeometry x="90" y="213" width="110" height="10" as="geometry" />
        </mxCell>
        <mxCell id="mJkIKe1cEbUoPiehUwoR-10" value="" style="rounded=0;whiteSpace=wrap;html=1;rotation=-90;" vertex="1" parent="1">
          <mxGeometry x="100" y="213" width="110" height="10" as="geometry" />
        </mxCell>
        <mxCell id="mJkIKe1cEbUoPiehUwoR-11" value="" style="rounded=0;whiteSpace=wrap;html=1;rotation=-90;" vertex="1" parent="1">
          <mxGeometry x="110" y="213" width="110" height="10" as="geometry" />
        </mxCell>
        <mxCell id="mJkIKe1cEbUoPiehUwoR-12" value="" style="rounded=0;whiteSpace=wrap;html=1;rotation=-90;" vertex="1" parent="1">
          <mxGeometry x="120" y="213" width="110" height="10" as="geometry" />
        </mxCell>
        <mxCell id="mJkIKe1cEbUoPiehUwoR-13" value="" style="rounded=0;whiteSpace=wrap;html=1;rotation=-90;" vertex="1" parent="1">
          <mxGeometry x="130" y="213" width="110" height="10" as="geometry" />
        </mxCell>
        <mxCell id="mJkIKe1cEbUoPiehUwoR-14" value="" style="rounded=0;whiteSpace=wrap;html=1;rotation=-90;" vertex="1" parent="1">
          <mxGeometry x="140" y="213" width="110" height="10" as="geometry" />
        </mxCell>
        <mxCell id="mJkIKe1cEbUoPiehUwoR-15" value="" style="rounded=0;whiteSpace=wrap;html=1;rotation=-90;" vertex="1" parent="1">
          <mxGeometry x="150" y="213" width="110" height="10" as="geometry" />
        </mxCell>
        <mxCell id="mJkIKe1cEbUoPiehUwoR-16" value="" style="rounded=0;whiteSpace=wrap;html=1;rotation=-90;" vertex="1" parent="1">
          <mxGeometry x="160" y="213" width="110" height="10" as="geometry" />
        </mxCell>
        <mxCell id="mJkIKe1cEbUoPiehUwoR-17" value="" style="rounded=0;whiteSpace=wrap;html=1;rotation=-90;" vertex="1" parent="1">
          <mxGeometry x="170" y="213" width="110" height="10" as="geometry" />
        </mxCell>
        <mxCell id="mJkIKe1cEbUoPiehUwoR-18" value="" style="rounded=0;whiteSpace=wrap;html=1;rotation=-90;" vertex="1" parent="1">
          <mxGeometry x="170" y="213" width="110" height="10" as="geometry" />
        </mxCell>
        <mxCell id="mJkIKe1cEbUoPiehUwoR-19" value="" style="rounded=0;whiteSpace=wrap;html=1;rotation=-90;" vertex="1" parent="1">
          <mxGeometry x="180" y="213" width="110" height="10" as="geometry" />
        </mxCell>
        <mxCell id="mJkIKe1cEbUoPiehUwoR-20" value="" style="rounded=0;whiteSpace=wrap;html=1;rotation=-90;" vertex="1" parent="1">
          <mxGeometry x="190" y="213" width="110" height="10" as="geometry" />
        </mxCell>
        <mxCell id="mJkIKe1cEbUoPiehUwoR-21" value="" style="rounded=0;whiteSpace=wrap;html=1;rotation=-90;" vertex="1" parent="1">
          <mxGeometry x="200" y="213" width="110" height="10" as="geometry" />
        </mxCell>
        <mxCell id="mJkIKe1cEbUoPiehUwoR-22" value="" style="rounded=0;whiteSpace=wrap;html=1;rotation=-90;" vertex="1" parent="1">
          <mxGeometry x="210" y="213" width="110" height="10" as="geometry" />
        </mxCell>
        <mxCell id="mJkIKe1cEbUoPiehUwoR-23" value="" style="rounded=0;whiteSpace=wrap;html=1;rotation=-90;" vertex="1" parent="1">
          <mxGeometry x="220" y="213" width="110" height="10" as="geometry" />
        </mxCell>
        <mxCell id="mJkIKe1cEbUoPiehUwoR-24" value="" style="rounded=0;whiteSpace=wrap;html=1;rotation=-90;" vertex="1" parent="1">
          <mxGeometry x="230" y="213" width="110" height="10" as="geometry" />
        </mxCell>
        <mxCell id="mJkIKe1cEbUoPiehUwoR-25" value="" style="rounded=0;whiteSpace=wrap;html=1;rotation=-90;" vertex="1" parent="1">
          <mxGeometry x="240" y="213" width="110" height="10" as="geometry" />
        </mxCell>
        <mxCell id="mJkIKe1cEbUoPiehUwoR-26" value="" style="rounded=0;whiteSpace=wrap;html=1;rotation=-90;" vertex="1" parent="1">
          <mxGeometry x="250" y="213" width="110" height="10" as="geometry" />
        </mxCell>
        <mxCell id="mJkIKe1cEbUoPiehUwoR-197" style="edgeStyle=orthogonalEdgeStyle;rounded=0;orthogonalLoop=1;jettySize=auto;html=1;exitX=0;exitY=0.25;exitDx=0;exitDy=0;entryX=0.5;entryY=0;entryDx=0;entryDy=0;" edge="1" parent="1" source="mJkIKe1cEbUoPiehUwoR-27" target="mJkIKe1cEbUoPiehUwoR-195">
          <mxGeometry relative="1" as="geometry" />
        </mxCell>
        <mxCell id="mJkIKe1cEbUoPiehUwoR-27" value="" style="rounded=0;whiteSpace=wrap;html=1;rotation=-90;" vertex="1" parent="1">
          <mxGeometry x="260" y="213" width="110" height="10" as="geometry" />
        </mxCell>
        <mxCell id="mJkIKe1cEbUoPiehUwoR-28" value="" style="rounded=0;whiteSpace=wrap;html=1;rotation=-90;" vertex="1" parent="1">
          <mxGeometry x="270" y="213" width="110" height="10" as="geometry" />
        </mxCell>
        <mxCell id="mJkIKe1cEbUoPiehUwoR-29" value="" style="rounded=0;whiteSpace=wrap;html=1;rotation=-90;" vertex="1" parent="1">
          <mxGeometry x="280" y="213" width="110" height="10" as="geometry" />
        </mxCell>
        <mxCell id="mJkIKe1cEbUoPiehUwoR-30" value="" style="rounded=0;whiteSpace=wrap;html=1;rotation=-90;" vertex="1" parent="1">
          <mxGeometry x="290" y="213" width="110" height="10" as="geometry" />
        </mxCell>
        <mxCell id="mJkIKe1cEbUoPiehUwoR-31" value="" style="rounded=0;whiteSpace=wrap;html=1;rotation=-90;" vertex="1" parent="1">
          <mxGeometry x="300" y="213" width="110" height="10" as="geometry" />
        </mxCell>
        <mxCell id="mJkIKe1cEbUoPiehUwoR-32" value="" style="rounded=0;whiteSpace=wrap;html=1;rotation=-90;" vertex="1" parent="1">
          <mxGeometry x="310" y="213" width="110" height="10" as="geometry" />
        </mxCell>
        <mxCell id="mJkIKe1cEbUoPiehUwoR-33" value="" style="rounded=0;whiteSpace=wrap;html=1;rotation=-90;" vertex="1" parent="1">
          <mxGeometry x="320" y="213" width="110" height="10" as="geometry" />
        </mxCell>
        <mxCell id="mJkIKe1cEbUoPiehUwoR-34" value="" style="rounded=0;whiteSpace=wrap;html=1;rotation=-90;" vertex="1" parent="1">
          <mxGeometry x="20" y="463" width="110" height="10" as="geometry" />
        </mxCell>
        <mxCell id="mJkIKe1cEbUoPiehUwoR-179" style="edgeStyle=orthogonalEdgeStyle;rounded=0;orthogonalLoop=1;jettySize=auto;html=1;exitX=0;exitY=0;exitDx=0;exitDy=0;entryX=0.5;entryY=0;entryDx=0;entryDy=0;" edge="1" parent="1" source="mJkIKe1cEbUoPiehUwoR-35" target="mJkIKe1cEbUoPiehUwoR-174">
          <mxGeometry relative="1" as="geometry" />
        </mxCell>
        <mxCell id="mJkIKe1cEbUoPiehUwoR-35" value="" style="rounded=0;whiteSpace=wrap;html=1;rotation=-90;" vertex="1" parent="1">
          <mxGeometry x="30" y="463" width="110" height="10" as="geometry" />
        </mxCell>
        <mxCell id="mJkIKe1cEbUoPiehUwoR-36" value="" style="rounded=0;whiteSpace=wrap;html=1;rotation=-90;" vertex="1" parent="1">
          <mxGeometry x="40" y="463" width="110" height="10" as="geometry" />
        </mxCell>
        <mxCell id="mJkIKe1cEbUoPiehUwoR-37" value="" style="rounded=0;whiteSpace=wrap;html=1;rotation=-90;" vertex="1" parent="1">
          <mxGeometry x="50" y="463" width="110" height="10" as="geometry" />
        </mxCell>
        <mxCell id="mJkIKe1cEbUoPiehUwoR-38" value="" style="rounded=0;whiteSpace=wrap;html=1;rotation=-90;" vertex="1" parent="1">
          <mxGeometry x="60" y="463" width="110" height="10" as="geometry" />
        </mxCell>
        <mxCell id="mJkIKe1cEbUoPiehUwoR-39" value="" style="rounded=0;whiteSpace=wrap;html=1;rotation=-90;" vertex="1" parent="1">
          <mxGeometry x="70" y="463" width="110" height="10" as="geometry" />
        </mxCell>
        <mxCell id="mJkIKe1cEbUoPiehUwoR-40" value="" style="rounded=0;whiteSpace=wrap;html=1;rotation=-90;" vertex="1" parent="1">
          <mxGeometry x="80" y="463" width="110" height="10" as="geometry" />
        </mxCell>
        <mxCell id="mJkIKe1cEbUoPiehUwoR-41" value="" style="rounded=0;whiteSpace=wrap;html=1;rotation=-90;" vertex="1" parent="1">
          <mxGeometry x="90" y="463" width="110" height="10" as="geometry" />
        </mxCell>
        <mxCell id="mJkIKe1cEbUoPiehUwoR-42" value="" style="rounded=0;whiteSpace=wrap;html=1;rotation=-90;" vertex="1" parent="1">
          <mxGeometry x="100" y="463" width="110" height="10" as="geometry" />
        </mxCell>
        <mxCell id="mJkIKe1cEbUoPiehUwoR-43" value="" style="rounded=0;whiteSpace=wrap;html=1;rotation=-90;" vertex="1" parent="1">
          <mxGeometry x="110" y="463" width="110" height="10" as="geometry" />
        </mxCell>
        <mxCell id="mJkIKe1cEbUoPiehUwoR-44" value="" style="rounded=0;whiteSpace=wrap;html=1;rotation=-90;" vertex="1" parent="1">
          <mxGeometry x="120" y="463" width="110" height="10" as="geometry" />
        </mxCell>
        <mxCell id="mJkIKe1cEbUoPiehUwoR-45" value="" style="rounded=0;whiteSpace=wrap;html=1;rotation=-90;" vertex="1" parent="1">
          <mxGeometry x="130" y="463" width="110" height="10" as="geometry" />
        </mxCell>
        <mxCell id="mJkIKe1cEbUoPiehUwoR-46" value="" style="rounded=0;whiteSpace=wrap;html=1;rotation=-90;" vertex="1" parent="1">
          <mxGeometry x="140" y="463" width="110" height="10" as="geometry" />
        </mxCell>
        <mxCell id="mJkIKe1cEbUoPiehUwoR-47" value="" style="rounded=0;whiteSpace=wrap;html=1;rotation=-90;" vertex="1" parent="1">
          <mxGeometry x="150" y="463" width="110" height="10" as="geometry" />
        </mxCell>
        <mxCell id="mJkIKe1cEbUoPiehUwoR-48" value="" style="rounded=0;whiteSpace=wrap;html=1;rotation=-90;" vertex="1" parent="1">
          <mxGeometry x="160" y="463" width="110" height="10" as="geometry" />
        </mxCell>
        <mxCell id="mJkIKe1cEbUoPiehUwoR-49" value="" style="rounded=0;whiteSpace=wrap;html=1;rotation=-90;" vertex="1" parent="1">
          <mxGeometry x="170" y="463" width="110" height="10" as="geometry" />
        </mxCell>
        <mxCell id="mJkIKe1cEbUoPiehUwoR-50" value="" style="rounded=0;whiteSpace=wrap;html=1;rotation=-90;" vertex="1" parent="1">
          <mxGeometry x="170" y="463" width="110" height="10" as="geometry" />
        </mxCell>
        <mxCell id="mJkIKe1cEbUoPiehUwoR-51" value="" style="rounded=0;whiteSpace=wrap;html=1;rotation=-90;" vertex="1" parent="1">
          <mxGeometry x="180" y="463" width="110" height="10" as="geometry" />
        </mxCell>
        <mxCell id="mJkIKe1cEbUoPiehUwoR-52" value="" style="rounded=0;whiteSpace=wrap;html=1;rotation=-90;" vertex="1" parent="1">
          <mxGeometry x="190" y="463" width="110" height="10" as="geometry" />
        </mxCell>
        <mxCell id="mJkIKe1cEbUoPiehUwoR-53" value="" style="rounded=0;whiteSpace=wrap;html=1;rotation=-90;" vertex="1" parent="1">
          <mxGeometry x="200" y="463" width="110" height="10" as="geometry" />
        </mxCell>
        <mxCell id="mJkIKe1cEbUoPiehUwoR-54" value="" style="rounded=0;whiteSpace=wrap;html=1;rotation=-90;" vertex="1" parent="1">
          <mxGeometry x="210" y="463" width="110" height="10" as="geometry" />
        </mxCell>
        <mxCell id="mJkIKe1cEbUoPiehUwoR-55" value="" style="rounded=0;whiteSpace=wrap;html=1;rotation=-90;" vertex="1" parent="1">
          <mxGeometry x="220" y="463" width="110" height="10" as="geometry" />
        </mxCell>
        <mxCell id="mJkIKe1cEbUoPiehUwoR-56" value="" style="rounded=0;whiteSpace=wrap;html=1;rotation=-90;" vertex="1" parent="1">
          <mxGeometry x="230" y="463" width="110" height="10" as="geometry" />
        </mxCell>
        <mxCell id="mJkIKe1cEbUoPiehUwoR-57" value="" style="rounded=0;whiteSpace=wrap;html=1;rotation=-90;" vertex="1" parent="1">
          <mxGeometry x="240" y="463" width="110" height="10" as="geometry" />
        </mxCell>
        <mxCell id="mJkIKe1cEbUoPiehUwoR-58" value="" style="rounded=0;whiteSpace=wrap;html=1;rotation=-90;" vertex="1" parent="1">
          <mxGeometry x="250" y="463" width="110" height="10" as="geometry" />
        </mxCell>
        <mxCell id="mJkIKe1cEbUoPiehUwoR-59" value="" style="rounded=0;whiteSpace=wrap;html=1;rotation=-90;" vertex="1" parent="1">
          <mxGeometry x="260" y="463" width="110" height="10" as="geometry" />
        </mxCell>
        <mxCell id="mJkIKe1cEbUoPiehUwoR-60" value="" style="rounded=0;whiteSpace=wrap;html=1;rotation=-90;" vertex="1" parent="1">
          <mxGeometry x="270" y="463" width="110" height="10" as="geometry" />
        </mxCell>
        <mxCell id="mJkIKe1cEbUoPiehUwoR-61" value="" style="rounded=0;whiteSpace=wrap;html=1;rotation=-90;" vertex="1" parent="1">
          <mxGeometry x="280" y="463" width="110" height="10" as="geometry" />
        </mxCell>
        <mxCell id="mJkIKe1cEbUoPiehUwoR-62" value="" style="rounded=0;whiteSpace=wrap;html=1;rotation=-90;" vertex="1" parent="1">
          <mxGeometry x="290" y="463" width="110" height="10" as="geometry" />
        </mxCell>
        <mxCell id="mJkIKe1cEbUoPiehUwoR-63" value="" style="rounded=0;whiteSpace=wrap;html=1;rotation=-90;" vertex="1" parent="1">
          <mxGeometry x="300" y="463" width="110" height="10" as="geometry" />
        </mxCell>
        <mxCell id="mJkIKe1cEbUoPiehUwoR-64" value="" style="rounded=0;whiteSpace=wrap;html=1;rotation=-90;" vertex="1" parent="1">
          <mxGeometry x="310" y="463" width="110" height="10" as="geometry" />
        </mxCell>
        <mxCell id="mJkIKe1cEbUoPiehUwoR-65" value="" style="rounded=0;whiteSpace=wrap;html=1;rotation=-90;" vertex="1" parent="1">
          <mxGeometry x="320" y="463" width="110" height="10" as="geometry" />
        </mxCell>
        <mxCell id="mJkIKe1cEbUoPiehUwoR-66" value="" style="rounded=0;whiteSpace=wrap;html=1;rotation=-90;" vertex="1" parent="1">
          <mxGeometry x="20" y="820" width="110" height="10" as="geometry" />
        </mxCell>
        <mxCell id="mJkIKe1cEbUoPiehUwoR-67" value="" style="rounded=0;whiteSpace=wrap;html=1;rotation=-90;" vertex="1" parent="1">
          <mxGeometry x="30" y="820" width="110" height="10" as="geometry" />
        </mxCell>
        <mxCell id="mJkIKe1cEbUoPiehUwoR-68" value="" style="rounded=0;whiteSpace=wrap;html=1;rotation=-90;" vertex="1" parent="1">
          <mxGeometry x="40" y="820" width="110" height="10" as="geometry" />
        </mxCell>
        <mxCell id="mJkIKe1cEbUoPiehUwoR-69" value="" style="rounded=0;whiteSpace=wrap;html=1;rotation=-90;" vertex="1" parent="1">
          <mxGeometry x="50" y="820" width="110" height="10" as="geometry" />
        </mxCell>
        <mxCell id="mJkIKe1cEbUoPiehUwoR-70" value="" style="rounded=0;whiteSpace=wrap;html=1;rotation=-90;" vertex="1" parent="1">
          <mxGeometry x="60" y="820" width="110" height="10" as="geometry" />
        </mxCell>
        <mxCell id="mJkIKe1cEbUoPiehUwoR-71" value="" style="rounded=0;whiteSpace=wrap;html=1;rotation=-90;" vertex="1" parent="1">
          <mxGeometry x="70" y="820" width="110" height="10" as="geometry" />
        </mxCell>
        <mxCell id="mJkIKe1cEbUoPiehUwoR-72" value="" style="rounded=0;whiteSpace=wrap;html=1;rotation=-90;" vertex="1" parent="1">
          <mxGeometry x="80" y="820" width="110" height="10" as="geometry" />
        </mxCell>
        <mxCell id="mJkIKe1cEbUoPiehUwoR-73" value="" style="rounded=0;whiteSpace=wrap;html=1;rotation=-90;" vertex="1" parent="1">
          <mxGeometry x="90" y="820" width="110" height="10" as="geometry" />
        </mxCell>
        <mxCell id="mJkIKe1cEbUoPiehUwoR-74" value="" style="rounded=0;whiteSpace=wrap;html=1;rotation=-90;" vertex="1" parent="1">
          <mxGeometry x="100" y="820" width="110" height="10" as="geometry" />
        </mxCell>
        <mxCell id="mJkIKe1cEbUoPiehUwoR-75" value="" style="rounded=0;whiteSpace=wrap;html=1;rotation=-90;" vertex="1" parent="1">
          <mxGeometry x="110" y="820" width="110" height="10" as="geometry" />
        </mxCell>
        <mxCell id="mJkIKe1cEbUoPiehUwoR-76" value="" style="rounded=0;whiteSpace=wrap;html=1;rotation=-90;" vertex="1" parent="1">
          <mxGeometry x="120" y="820" width="110" height="10" as="geometry" />
        </mxCell>
        <mxCell id="mJkIKe1cEbUoPiehUwoR-77" value="" style="rounded=0;whiteSpace=wrap;html=1;rotation=-90;" vertex="1" parent="1">
          <mxGeometry x="130" y="820" width="110" height="10" as="geometry" />
        </mxCell>
        <mxCell id="mJkIKe1cEbUoPiehUwoR-78" value="" style="rounded=0;whiteSpace=wrap;html=1;rotation=-90;" vertex="1" parent="1">
          <mxGeometry x="140" y="820" width="110" height="10" as="geometry" />
        </mxCell>
        <mxCell id="mJkIKe1cEbUoPiehUwoR-79" value="" style="rounded=0;whiteSpace=wrap;html=1;rotation=-90;" vertex="1" parent="1">
          <mxGeometry x="150" y="820" width="110" height="10" as="geometry" />
        </mxCell>
        <mxCell id="mJkIKe1cEbUoPiehUwoR-80" value="" style="rounded=0;whiteSpace=wrap;html=1;rotation=-90;" vertex="1" parent="1">
          <mxGeometry x="160" y="820" width="110" height="10" as="geometry" />
        </mxCell>
        <mxCell id="mJkIKe1cEbUoPiehUwoR-81" value="" style="rounded=0;whiteSpace=wrap;html=1;rotation=-90;" vertex="1" parent="1">
          <mxGeometry x="170" y="820" width="110" height="10" as="geometry" />
        </mxCell>
        <mxCell id="mJkIKe1cEbUoPiehUwoR-82" value="" style="rounded=0;whiteSpace=wrap;html=1;rotation=-90;" vertex="1" parent="1">
          <mxGeometry x="170" y="820" width="110" height="10" as="geometry" />
        </mxCell>
        <mxCell id="mJkIKe1cEbUoPiehUwoR-83" value="" style="rounded=0;whiteSpace=wrap;html=1;rotation=-90;" vertex="1" parent="1">
          <mxGeometry x="180" y="820" width="110" height="10" as="geometry" />
        </mxCell>
        <mxCell id="mJkIKe1cEbUoPiehUwoR-84" value="" style="rounded=0;whiteSpace=wrap;html=1;rotation=-90;" vertex="1" parent="1">
          <mxGeometry x="190" y="820" width="110" height="10" as="geometry" />
        </mxCell>
        <mxCell id="mJkIKe1cEbUoPiehUwoR-85" value="" style="rounded=0;whiteSpace=wrap;html=1;rotation=-90;" vertex="1" parent="1">
          <mxGeometry x="200" y="820" width="110" height="10" as="geometry" />
        </mxCell>
        <mxCell id="mJkIKe1cEbUoPiehUwoR-86" value="" style="rounded=0;whiteSpace=wrap;html=1;rotation=-90;" vertex="1" parent="1">
          <mxGeometry x="210" y="820" width="110" height="10" as="geometry" />
        </mxCell>
        <mxCell id="mJkIKe1cEbUoPiehUwoR-87" value="" style="rounded=0;whiteSpace=wrap;html=1;rotation=-90;" vertex="1" parent="1">
          <mxGeometry x="220" y="820" width="110" height="10" as="geometry" />
        </mxCell>
        <mxCell id="mJkIKe1cEbUoPiehUwoR-202" style="edgeStyle=orthogonalEdgeStyle;rounded=0;orthogonalLoop=1;jettySize=auto;html=1;exitX=1;exitY=0.25;exitDx=0;exitDy=0;entryX=0.25;entryY=1;entryDx=0;entryDy=0;" edge="1" parent="1" source="mJkIKe1cEbUoPiehUwoR-88" target="mJkIKe1cEbUoPiehUwoR-200">
          <mxGeometry relative="1" as="geometry">
            <mxPoint x="100" y="970" as="targetPoint" />
            <Array as="points">
              <mxPoint x="283" y="750" />
              <mxPoint x="30" y="750" />
              <mxPoint x="30" y="963" />
              <mxPoint x="180" y="963" />
            </Array>
          </mxGeometry>
        </mxCell>
        <mxCell id="mJkIKe1cEbUoPiehUwoR-88" value="" style="rounded=0;whiteSpace=wrap;html=1;rotation=-90;" vertex="1" parent="1">
          <mxGeometry x="230" y="820" width="110" height="10" as="geometry" />
        </mxCell>
        <mxCell id="mJkIKe1cEbUoPiehUwoR-89" value="" style="rounded=0;whiteSpace=wrap;html=1;rotation=-90;" vertex="1" parent="1">
          <mxGeometry x="240" y="820" width="110" height="10" as="geometry" />
        </mxCell>
        <mxCell id="mJkIKe1cEbUoPiehUwoR-90" value="" style="rounded=0;whiteSpace=wrap;html=1;rotation=-90;" vertex="1" parent="1">
          <mxGeometry x="250" y="820" width="110" height="10" as="geometry" />
        </mxCell>
        <mxCell id="mJkIKe1cEbUoPiehUwoR-91" value="" style="rounded=0;whiteSpace=wrap;html=1;rotation=-90;" vertex="1" parent="1">
          <mxGeometry x="260" y="820" width="110" height="10" as="geometry" />
        </mxCell>
        <mxCell id="mJkIKe1cEbUoPiehUwoR-92" value="" style="rounded=0;whiteSpace=wrap;html=1;rotation=-90;" vertex="1" parent="1">
          <mxGeometry x="270" y="820" width="110" height="10" as="geometry" />
        </mxCell>
        <mxCell id="mJkIKe1cEbUoPiehUwoR-93" value="" style="rounded=0;whiteSpace=wrap;html=1;rotation=-90;" vertex="1" parent="1">
          <mxGeometry x="280" y="820" width="110" height="10" as="geometry" />
        </mxCell>
        <mxCell id="mJkIKe1cEbUoPiehUwoR-94" value="" style="rounded=0;whiteSpace=wrap;html=1;rotation=-90;" vertex="1" parent="1">
          <mxGeometry x="290" y="820" width="110" height="10" as="geometry" />
        </mxCell>
        <mxCell id="mJkIKe1cEbUoPiehUwoR-95" value="" style="rounded=0;whiteSpace=wrap;html=1;rotation=-90;" vertex="1" parent="1">
          <mxGeometry x="300" y="820" width="110" height="10" as="geometry" />
        </mxCell>
        <mxCell id="mJkIKe1cEbUoPiehUwoR-96" value="" style="rounded=0;whiteSpace=wrap;html=1;rotation=-90;" vertex="1" parent="1">
          <mxGeometry x="310" y="820" width="110" height="10" as="geometry" />
        </mxCell>
        <mxCell id="mJkIKe1cEbUoPiehUwoR-97" value="" style="rounded=0;whiteSpace=wrap;html=1;rotation=-90;" vertex="1" parent="1">
          <mxGeometry x="320" y="820" width="110" height="10" as="geometry" />
        </mxCell>
        <mxCell id="mJkIKe1cEbUoPiehUwoR-130" value="&lt;font style=&quot;font-size: 14px;&quot;&gt;valid&lt;/font&gt;" style="text;html=1;align=center;verticalAlign=middle;resizable=0;points=[];autosize=1;strokeColor=none;fillColor=none;" vertex="1" parent="1">
          <mxGeometry x="200" y="273" width="50" height="30" as="geometry" />
        </mxCell>
        <mxCell id="mJkIKe1cEbUoPiehUwoR-131" value="&lt;font style=&quot;font-size: 14px;&quot;&gt;pending&lt;/font&gt;" style="text;html=1;align=center;verticalAlign=middle;resizable=0;points=[];autosize=1;strokeColor=none;fillColor=none;" vertex="1" parent="1">
          <mxGeometry x="190" y="527" width="70" height="30" as="geometry" />
        </mxCell>
        <mxCell id="mJkIKe1cEbUoPiehUwoR-132" value="&lt;font style=&quot;font-size: 14px;&quot;&gt;preg&lt;/font&gt;" style="text;html=1;align=center;verticalAlign=middle;resizable=0;points=[];autosize=1;strokeColor=none;fillColor=none;" vertex="1" parent="1">
          <mxGeometry x="200" y="890" width="50" height="30" as="geometry" />
        </mxCell>
        <mxCell id="mJkIKe1cEbUoPiehUwoR-140" style="edgeStyle=orthogonalEdgeStyle;rounded=0;orthogonalLoop=1;jettySize=auto;html=1;exitX=0.5;exitY=1;exitDx=0;exitDy=0;" edge="1" parent="1" source="mJkIKe1cEbUoPiehUwoR-136" target="mJkIKe1cEbUoPiehUwoR-142">
          <mxGeometry relative="1" as="geometry">
            <mxPoint x="500" y="273" as="targetPoint" />
            <Array as="points">
              <mxPoint x="700" y="243" />
              <mxPoint x="700" y="173" />
              <mxPoint x="460" y="173" />
            </Array>
          </mxGeometry>
        </mxCell>
        <mxCell id="mJkIKe1cEbUoPiehUwoR-136" value="" style="rounded=0;whiteSpace=wrap;html=1;rotation=-90;" vertex="1" parent="1">
          <mxGeometry x="610" y="223" width="100" height="40" as="geometry" />
        </mxCell>
        <mxCell id="mJkIKe1cEbUoPiehUwoR-137" value="" style="triangle;whiteSpace=wrap;html=1;rotation=-90;" vertex="1" parent="1">
          <mxGeometry x="640" y="253" width="40" height="40" as="geometry" />
        </mxCell>
        <mxCell id="mJkIKe1cEbUoPiehUwoR-138" value="&lt;font style=&quot;font-size: 14px;&quot;&gt;tail&lt;/font&gt;" style="text;html=1;align=center;verticalAlign=middle;resizable=0;points=[];autosize=1;strokeColor=none;fillColor=none;" vertex="1" parent="1">
          <mxGeometry x="640" y="297" width="40" height="30" as="geometry" />
        </mxCell>
        <mxCell id="mJkIKe1cEbUoPiehUwoR-139" value="" style="shape=trapezoid;perimeter=trapezoidPerimeter;whiteSpace=wrap;html=1;fixedSize=1;rotation=90;" vertex="1" parent="1">
          <mxGeometry x="540" y="228" width="90" height="30" as="geometry" />
        </mxCell>
        <mxCell id="mJkIKe1cEbUoPiehUwoR-141" value="" style="endArrow=classic;html=1;rounded=0;entryX=0.333;entryY=1.1;entryDx=0;entryDy=0;entryPerimeter=0;" edge="1" parent="1" target="mJkIKe1cEbUoPiehUwoR-139">
          <mxGeometry width="50" height="50" relative="1" as="geometry">
            <mxPoint x="460" y="228" as="sourcePoint" />
            <mxPoint x="510" y="178" as="targetPoint" />
          </mxGeometry>
        </mxCell>
        <mxCell id="mJkIKe1cEbUoPiehUwoR-142" value="+1" style="ellipse;whiteSpace=wrap;html=1;aspect=fixed;" vertex="1" parent="1">
          <mxGeometry x="480" y="243" width="50" height="50" as="geometry" />
        </mxCell>
        <mxCell id="mJkIKe1cEbUoPiehUwoR-145" style="edgeStyle=orthogonalEdgeStyle;rounded=0;orthogonalLoop=1;jettySize=auto;html=1;exitX=1;exitY=0.5;exitDx=0;exitDy=0;entryX=0.633;entryY=1.067;entryDx=0;entryDy=0;entryPerimeter=0;" edge="1" parent="1" source="mJkIKe1cEbUoPiehUwoR-142" target="mJkIKe1cEbUoPiehUwoR-139">
          <mxGeometry relative="1" as="geometry" />
        </mxCell>
        <mxCell id="mJkIKe1cEbUoPiehUwoR-147" style="edgeStyle=orthogonalEdgeStyle;rounded=0;orthogonalLoop=1;jettySize=auto;html=1;exitX=1;exitY=0.5;exitDx=0;exitDy=0;exitPerimeter=0;entryX=1;entryY=0.5;entryDx=0;entryDy=0;" edge="1" parent="1" source="mJkIKe1cEbUoPiehUwoR-146" target="mJkIKe1cEbUoPiehUwoR-139">
          <mxGeometry relative="1" as="geometry" />
        </mxCell>
        <mxCell id="mJkIKe1cEbUoPiehUwoR-146" value="" style="shape=or;whiteSpace=wrap;html=1;rotation=-90;" vertex="1" parent="1">
          <mxGeometry x="565" y="325" width="40" height="50" as="geometry" />
        </mxCell>
        <mxCell id="mJkIKe1cEbUoPiehUwoR-149" value="&lt;font style=&quot;font-size: 14px;&quot;&gt;rob_alloc_req_rdy&lt;/font&gt;" style="text;html=1;align=center;verticalAlign=middle;resizable=0;points=[];autosize=1;strokeColor=none;fillColor=none;" vertex="1" parent="1">
          <mxGeometry x="455" y="400" width="140" height="30" as="geometry" />
        </mxCell>
        <mxCell id="mJkIKe1cEbUoPiehUwoR-150" value="&lt;font style=&quot;font-size: 14px;&quot;&gt;rob_alloc_req_val&lt;/font&gt;" style="text;html=1;align=center;verticalAlign=middle;resizable=0;points=[];autosize=1;strokeColor=none;fillColor=none;" vertex="1" parent="1">
          <mxGeometry x="585" y="400" width="130" height="30" as="geometry" />
        </mxCell>
        <mxCell id="mJkIKe1cEbUoPiehUwoR-153" value="" style="endArrow=none;html=1;rounded=0;entryX=0;entryY=0.25;entryDx=0;entryDy=0;entryPerimeter=0;" edge="1" parent="1">
          <mxGeometry width="50" height="50" relative="1" as="geometry">
            <mxPoint x="600" y="405" as="sourcePoint" />
            <mxPoint x="600" y="370" as="targetPoint" />
          </mxGeometry>
        </mxCell>
        <mxCell id="mJkIKe1cEbUoPiehUwoR-154" value="" style="endArrow=none;html=1;rounded=0;entryX=0;entryY=0.25;entryDx=0;entryDy=0;entryPerimeter=0;" edge="1" parent="1">
          <mxGeometry width="50" height="50" relative="1" as="geometry">
            <mxPoint x="568" y="405" as="sourcePoint" />
            <mxPoint x="568" y="370" as="targetPoint" />
          </mxGeometry>
        </mxCell>
        <mxCell id="mJkIKe1cEbUoPiehUwoR-155" style="edgeStyle=orthogonalEdgeStyle;rounded=0;orthogonalLoop=1;jettySize=auto;html=1;exitX=0.5;exitY=1;exitDx=0;exitDy=0;" edge="1" parent="1" source="mJkIKe1cEbUoPiehUwoR-156" target="mJkIKe1cEbUoPiehUwoR-161">
          <mxGeometry relative="1" as="geometry">
            <mxPoint x="500" y="554" as="targetPoint" />
            <Array as="points">
              <mxPoint x="700" y="524" />
              <mxPoint x="700" y="454" />
              <mxPoint x="460" y="454" />
            </Array>
          </mxGeometry>
        </mxCell>
        <mxCell id="mJkIKe1cEbUoPiehUwoR-156" value="" style="rounded=0;whiteSpace=wrap;html=1;rotation=-90;" vertex="1" parent="1">
          <mxGeometry x="610" y="504" width="100" height="40" as="geometry" />
        </mxCell>
        <mxCell id="mJkIKe1cEbUoPiehUwoR-157" value="" style="triangle;whiteSpace=wrap;html=1;rotation=-90;" vertex="1" parent="1">
          <mxGeometry x="640" y="534" width="40" height="40" as="geometry" />
        </mxCell>
        <mxCell id="mJkIKe1cEbUoPiehUwoR-158" value="&lt;font style=&quot;font-size: 14px;&quot;&gt;head&lt;/font&gt;" style="text;html=1;align=center;verticalAlign=middle;resizable=0;points=[];autosize=1;strokeColor=none;fillColor=none;" vertex="1" parent="1">
          <mxGeometry x="635" y="578" width="50" height="30" as="geometry" />
        </mxCell>
        <mxCell id="mJkIKe1cEbUoPiehUwoR-159" value="" style="shape=trapezoid;perimeter=trapezoidPerimeter;whiteSpace=wrap;html=1;fixedSize=1;rotation=90;" vertex="1" parent="1">
          <mxGeometry x="540" y="509" width="90" height="30" as="geometry" />
        </mxCell>
        <mxCell id="mJkIKe1cEbUoPiehUwoR-160" value="" style="endArrow=classic;html=1;rounded=0;entryX=0.333;entryY=1.1;entryDx=0;entryDy=0;entryPerimeter=0;" edge="1" parent="1" target="mJkIKe1cEbUoPiehUwoR-159">
          <mxGeometry width="50" height="50" relative="1" as="geometry">
            <mxPoint x="460" y="509" as="sourcePoint" />
            <mxPoint x="510" y="459" as="targetPoint" />
          </mxGeometry>
        </mxCell>
        <mxCell id="mJkIKe1cEbUoPiehUwoR-161" value="+1" style="ellipse;whiteSpace=wrap;html=1;aspect=fixed;" vertex="1" parent="1">
          <mxGeometry x="480" y="524" width="50" height="50" as="geometry" />
        </mxCell>
        <mxCell id="mJkIKe1cEbUoPiehUwoR-162" style="edgeStyle=orthogonalEdgeStyle;rounded=0;orthogonalLoop=1;jettySize=auto;html=1;exitX=1;exitY=0.5;exitDx=0;exitDy=0;entryX=0.633;entryY=1.067;entryDx=0;entryDy=0;entryPerimeter=0;" edge="1" parent="1" source="mJkIKe1cEbUoPiehUwoR-161" target="mJkIKe1cEbUoPiehUwoR-159">
          <mxGeometry relative="1" as="geometry" />
        </mxCell>
        <mxCell id="mJkIKe1cEbUoPiehUwoR-163" style="edgeStyle=orthogonalEdgeStyle;rounded=0;orthogonalLoop=1;jettySize=auto;html=1;exitX=1;exitY=0.5;exitDx=0;exitDy=0;exitPerimeter=0;entryX=1;entryY=0.5;entryDx=0;entryDy=0;" edge="1" parent="1" target="mJkIKe1cEbUoPiehUwoR-159">
          <mxGeometry relative="1" as="geometry">
            <mxPoint x="585" y="604" as="sourcePoint" />
          </mxGeometry>
        </mxCell>
        <mxCell id="mJkIKe1cEbUoPiehUwoR-165" value="&lt;font style=&quot;font-size: 14px;&quot;&gt;rob_commit_wen&lt;/font&gt;" style="text;html=1;align=center;verticalAlign=middle;resizable=0;points=[];autosize=1;strokeColor=none;fillColor=none;" vertex="1" parent="1">
          <mxGeometry x="520" y="614" width="130" height="30" as="geometry" />
        </mxCell>
        <mxCell id="mJkIKe1cEbUoPiehUwoR-177" value="" style="group" vertex="1" connectable="0" parent="1">
          <mxGeometry x="67" y="546.5" width="19" height="29.5" as="geometry" />
        </mxCell>
        <mxCell id="mJkIKe1cEbUoPiehUwoR-172" value="" style="triangle;whiteSpace=wrap;html=1;rotation=-90;" vertex="1" parent="mJkIKe1cEbUoPiehUwoR-177">
          <mxGeometry x="-0.5" y="10" width="20" height="19" as="geometry" />
        </mxCell>
        <mxCell id="mJkIKe1cEbUoPiehUwoR-174" value="" style="ellipse;whiteSpace=wrap;html=1;aspect=fixed;" vertex="1" parent="mJkIKe1cEbUoPiehUwoR-177">
          <mxGeometry x="5" width="10" height="10" as="geometry" />
        </mxCell>
        <mxCell id="mJkIKe1cEbUoPiehUwoR-182" value="" style="shape=or;whiteSpace=wrap;html=1;rotation=0;" vertex="1" parent="1">
          <mxGeometry x="110" y="623" width="40" height="50" as="geometry" />
        </mxCell>
        <mxCell id="mJkIKe1cEbUoPiehUwoR-183" style="edgeStyle=orthogonalEdgeStyle;rounded=0;orthogonalLoop=1;jettySize=auto;html=1;exitX=0;exitY=0.25;exitDx=0;exitDy=0;entryX=0;entryY=0.5;entryDx=0;entryDy=0;entryPerimeter=0;" edge="1" parent="1" source="mJkIKe1cEbUoPiehUwoR-172" target="mJkIKe1cEbUoPiehUwoR-182">
          <mxGeometry relative="1" as="geometry">
            <mxPoint x="72" y="653" as="targetPoint" />
          </mxGeometry>
        </mxCell>
        <mxCell id="mJkIKe1cEbUoPiehUwoR-184" style="edgeStyle=orthogonalEdgeStyle;rounded=0;orthogonalLoop=1;jettySize=auto;html=1;exitX=1;exitY=0.5;exitDx=0;exitDy=0;exitPerimeter=0;entryX=-0.031;entryY=0.6;entryDx=0;entryDy=0;entryPerimeter=0;" edge="1" parent="1" source="mJkIKe1cEbUoPiehUwoR-182" target="mJkIKe1cEbUoPiehUwoR-165">
          <mxGeometry relative="1" as="geometry" />
        </mxCell>
        <mxCell id="mJkIKe1cEbUoPiehUwoR-185" value="&lt;font style=&quot;font-size: 14px;&quot;&gt;head&lt;/font&gt;" style="text;html=1;align=center;verticalAlign=middle;resizable=0;points=[];autosize=1;strokeColor=none;fillColor=none;" vertex="1" parent="1">
          <mxGeometry x="50" y="133" width="50" height="30" as="geometry" />
        </mxCell>
        <mxCell id="mJkIKe1cEbUoPiehUwoR-186" value="&lt;font style=&quot;font-size: 14px;&quot;&gt;head&lt;/font&gt;" style="text;html=1;align=center;verticalAlign=middle;resizable=0;points=[];autosize=1;strokeColor=none;fillColor=none;" vertex="1" parent="1">
          <mxGeometry x="50" y="383" width="50" height="30" as="geometry" />
        </mxCell>
        <mxCell id="mJkIKe1cEbUoPiehUwoR-187" value="&lt;font style=&quot;font-size: 14px;&quot;&gt;tail&lt;/font&gt;" style="text;html=1;align=center;verticalAlign=middle;resizable=0;points=[];autosize=1;strokeColor=none;fillColor=none;" vertex="1" parent="1">
          <mxGeometry x="295" y="133" width="40" height="30" as="geometry" />
        </mxCell>
        <mxCell id="mJkIKe1cEbUoPiehUwoR-190" value="" style="triangle;whiteSpace=wrap;html=1;rotation=-90;" vertex="1" parent="1">
          <mxGeometry x="305" y="305" width="20" height="19" as="geometry" />
        </mxCell>
        <mxCell id="mJkIKe1cEbUoPiehUwoR-195" value="" style="ellipse;whiteSpace=wrap;html=1;aspect=fixed;" vertex="1" parent="1">
          <mxGeometry x="310" y="295" width="10" height="10" as="geometry" />
        </mxCell>
        <mxCell id="mJkIKe1cEbUoPiehUwoR-198" style="edgeStyle=orthogonalEdgeStyle;rounded=0;orthogonalLoop=1;jettySize=auto;html=1;exitX=0;exitY=0.5;exitDx=0;exitDy=0;entryX=0.264;entryY=0.1;entryDx=0;entryDy=0;entryPerimeter=0;" edge="1" parent="1" source="mJkIKe1cEbUoPiehUwoR-190" target="mJkIKe1cEbUoPiehUwoR-149">
          <mxGeometry relative="1" as="geometry" />
        </mxCell>
        <mxCell id="mJkIKe1cEbUoPiehUwoR-199" value="&lt;font style=&quot;font-size: 14px;&quot;&gt;tail&lt;/font&gt;" style="text;html=1;align=center;verticalAlign=middle;resizable=0;points=[];autosize=1;strokeColor=none;fillColor=none;" vertex="1" parent="1">
          <mxGeometry x="264" y="720" width="40" height="30" as="geometry" />
        </mxCell>
        <mxCell id="mJkIKe1cEbUoPiehUwoR-206" style="edgeStyle=orthogonalEdgeStyle;rounded=0;orthogonalLoop=1;jettySize=auto;html=1;exitX=0.422;exitY=0.133;exitDx=0;exitDy=0;exitPerimeter=0;" edge="1" parent="1" source="mJkIKe1cEbUoPiehUwoR-200">
          <mxGeometry relative="1" as="geometry">
            <mxPoint x="240" y="980" as="sourcePoint" />
            <mxPoint x="285" y="878.5" as="targetPoint" />
            <Array as="points">
              <mxPoint x="216" y="980" />
              <mxPoint x="285" y="980" />
            </Array>
          </mxGeometry>
        </mxCell>
        <mxCell id="mJkIKe1cEbUoPiehUwoR-200" value="" style="shape=trapezoid;perimeter=trapezoidPerimeter;whiteSpace=wrap;html=1;fixedSize=1;rotation=90;" vertex="1" parent="1">
          <mxGeometry x="160" y="970" width="90" height="30" as="geometry" />
        </mxCell>
        <mxCell id="mJkIKe1cEbUoPiehUwoR-204" style="edgeStyle=orthogonalEdgeStyle;rounded=0;orthogonalLoop=1;jettySize=auto;html=1;entryX=0.75;entryY=1;entryDx=0;entryDy=0;" edge="1" parent="1" source="mJkIKe1cEbUoPiehUwoR-203" target="mJkIKe1cEbUoPiehUwoR-200">
          <mxGeometry relative="1" as="geometry">
            <Array as="points">
              <mxPoint x="160" y="1008" />
            </Array>
          </mxGeometry>
        </mxCell>
        <mxCell id="mJkIKe1cEbUoPiehUwoR-203" value="&lt;font style=&quot;font-size: 14px;&quot;&gt;rob_alloc_req_preg&lt;/font&gt;" style="text;html=1;align=center;verticalAlign=middle;resizable=0;points=[];autosize=1;strokeColor=none;fillColor=none;" vertex="1" parent="1">
          <mxGeometry x="6.5" y="990" width="140" height="30" as="geometry" />
        </mxCell>
        <mxCell id="mJkIKe1cEbUoPiehUwoR-207" value="" style="endArrow=classic;html=1;rounded=0;entryX=1;entryY=0.5;entryDx=0;entryDy=0;" edge="1" parent="1" target="mJkIKe1cEbUoPiehUwoR-200">
          <mxGeometry width="50" height="50" relative="1" as="geometry">
            <mxPoint x="585" y="318" as="sourcePoint" />
            <mxPoint x="200" y="1030" as="targetPoint" />
            <Array as="points">
              <mxPoint x="760" y="320" />
              <mxPoint x="760" y="1080" />
              <mxPoint x="205" y="1080" />
            </Array>
          </mxGeometry>
        </mxCell>
        <mxCell id="mJkIKe1cEbUoPiehUwoR-208" value="" style="ellipse;whiteSpace=wrap;html=1;aspect=fixed;fillColor=#000000;" vertex="1" parent="1">
          <mxGeometry x="581" y="312" width="10" height="10" as="geometry" />
        </mxCell>
      </root>
    </mxGraphModel>
  </diagram>
</mxfile>
